/* XPM */
static char *result[] = {
/* columns rows colors chars-per-pixel */
"25 25 66 1 ",
"  c #86BE42",
". c #86BF42",
"X c #86BE43",
"o c #86BF43",
"O c #87BF43",
"+ c #86BF44",
"@ c #87C042",
"# c #86C043",
"$ c #87C043",
"% c #86C044",
"& c #87C044",
"* c #88C042",
"= c #89C042",
"- c #89C142",
"; c #88C043",
": c #88C143",
"> c #89C143",
", c #8AC142",
"< c #8AC143",
"1 c #88C243",
"2 c #89C243",
"3 c #8AC242",
"4 c #8BC242",
"5 c #8AC342",
"6 c #8BC342",
"7 c #8AC243",
"8 c #8BC243",
"9 c #8AC343",
"0 c #8BC343",
"q c #8CC342",
"w c #8CC343",
"e c #8DC343",
"r c #8EC641",
"t c #8FC641",
"y c #8CC442",
"u c #8DC442",
"i c #8DC542",
"p c #8CC443",
"a c #8DC443",
"s c #8DC543",
"d c #8EC442",
"f c #8EC542",
"g c #8FC542",
"h c #8EC543",
"j c #8FC543",
"k c #8DC643",
"l c #8EC642",
"z c #8FC642",
"x c #8FC742",
"c c #8EC643",
"v c #8FC643",
"b c #8FC743",
"n c #8AC144",
"m c #8BC244",
"M c #8BC344",
"N c #8BC444",
"B c #8CC444",
"V c #8DC444",
"C c #8EC544",
"Z c #90C642",
"A c #90C742",
"S c #90C643",
"D c #90C743",
"F c #91C743",
"G c #90C843",
"H c #91C843",
/* pixels */
"zzzDzzzAy@cttzzDDtzzzSA-,",
"zApofZzDs9xAzzDDDzzxvSD66",
"DDcsvDDDDHw>DDCvDF7;DDDHH",
"vAHGDzADDDp0AkoaDzhavDDvz",
"z4<DvA3$DvDAzzvbDzzADDFDz",
"z60DzzisSDzgzzFa#izlvDwyz",
"zAsOfzzAvfxzzzzcslzzvx>-x",
"zvhaczzAy.hAzzDHFzzzvDFDz",
"vAFHDDzvSbvvzSn0Svl pHDvv",
"j;VDviSSDFDvSSwpDSchvw>Dv",
"h7sHaXfDFDDDDbHFDSFFDpNbS",
"zADDvzlZ<0DgAZvDDz5qvDFvz",
"zZlOezzzmpzziuSDDz*2AvDAz",
"zzvsfzzzDFvz-*SDDzZzSDciz",
"zvHHDvzDSDvvDvDbczvzcb2&v",
"vD02DDawDDDSvvFp+hDx$nDbv",
"vDpMvD5:DDchSvSvDZSSDSDvv",
"zzDHvzxASD@1xAFDDzd.pDDzz",
"zzADzzzzvDzft=8GSzfyfDSzz",
"zu;czzzvvDzgr5yDDzzAvSDAz",
"Ah7vvvzfvDDvvDHDDzvvvH0<A",
"DDHHHDb#<DDDvvsvDDDDbDp0v",
"vvSj7vZvDDDvZc%BDvZf$BHDv",
"zvDa;fZzvDDzzzvvDzzzavDvz",
"zzvFAzzzSDzzzzDDDzzzDDDzz"
};
