/* XPM */
static char *result[] = {
/* columns rows colors chars-per-pixel */
"25 25 128 2 ",
"   c black",
".  c #010000",
"X  c #020100",
"o  c #030101",
"O  c #050000",
"+  c #040100",
"@  c #050200",
"#  c #050201",
"$  c #0F0401",
"%  c #0F0502",
"&  c #110400",
"*  c #130502",
"=  c #130602",
"-  c #150602",
";  c #160702",
":  c #180602",
">  c #190702",
",  c #1C0702",
"<  c #1A0803",
"1  c #1C0803",
"2  c #260D04",
"3  c #261006",
"4  c #2E1004",
"5  c #2F1105",
"6  c #2D1106",
"7  c #2F1508",
"8  c #3C1606",
"9  c #3E1807",
"0  c #361609",
"q  c #38190A",
"w  c #38190B",
"e  c #3A1A0B",
"r  c #3E1C0C",
"t  c #3E1D0E",
"y  c #4A1E0A",
"u  c #4B1E0A",
"i  c #47200F",
"p  c #56240E",
"a  c #5B260F",
"s  c #5E280F",
"d  c #472110",
"f  c #532814",
"g  c #5E2810",
"h  c #592B16",
"j  c #5B2C16",
"k  c #642A11",
"l  c #682D12",
"z  c #6C2E13",
"x  c #612E18",
"c  c #623019",
"v  c #66321A",
"b  c #68321B",
"n  c #6B331B",
"m  c #69341B",
"M  c #6A341B",
"N  c #6D361D",
"B  c #6F371D",
"V  c #703014",
"C  c #743215",
"Z  c #773416",
"A  c #743A1F",
"S  c #753A1F",
"D  c #763A1F",
"F  c #763B20",
"G  c #793D21",
"H  c #7B3D21",
"J  c #7D3E22",
"K  c #853B1A",
"L  c #863B1A",
"P  c #873C1B",
"I  c #803F22",
"U  c #8F401C",
"Y  c #91411D",
"T  c #92411D",
"R  c #93421E",
"E  c #824223",
"W  c #834223",
"Q  c #834224",
"!  c #834225",
"~  c #864224",
"^  c #894425",
"/  c #894526",
"(  c #8A4527",
")  c #8E4627",
"_  c #8E4727",
"`  c #8F4727",
"'  c #9E4720",
"]  c #904827",
"[  c #904828",
"{  c #914828",
"}  c #924928",
"|  c #944928",
" . c #944A29",
".. c #954A29",
"X. c #964B29",
"o. c #964B2A",
"O. c #9D4F2C",
"+. c #9E4F2C",
"@. c #A14821",
"#. c #A64B23",
"$. c #A74B23",
"%. c #A84C23",
"&. c #AB4E24",
"*. c #AC4E24",
"=. c #AD4E24",
"-. c #AD4F25",
";. c #AE4E24",
":. c #A0502D",
">. c #B15025",
",. c #B25126",
"<. c #B45226",
"1. c #B65326",
"2. c #B65327",
"3. c #B75327",
"4. c #B75427",
"5. c #B85427",
"6. c #B95427",
"7. c #B95428",
"8. c #BA5528",
"9. c #BD5728",
"0. c #BE5728",
"q. c #BE5729",
"w. c #C0572A",
"e. c #C05829",
"r. c #C2592A",
"t. c #C55A2B",
"y. c #C65B2B",
"u. c None",
/* pixels */
"u.u.u.u.u.u.u.u.u.u.u.u.u.u.u.u.u.u.u.u.u.u.u.u.u.",
"u.u.u.u.u.u.u.u.u.u.u.      u.u.u.u.u.u.u.u.u.u.u.",
"u.u.u.u.u.u.u.u.u.u.  + . + . u.u.u.u.u.u.u.u.u.u.",
"u.u.u.u.u.u.u.u.u.              u.u.u.u.u.u.u.u.u.",
"u.u.u.u.u.u.u.u.  #   w 1 , $ o   u.u.u.u.u.u.u.u.",
"u.u.u.u.u.u.u.u.+ t > b 5 l 2 g   u.u.u.u.u.u.u.u.",
"u.u.u.u.u.u.u.  r f 6 I O Y > P u   u.u.u.u.u.u.u.",
"u.u.u.u.u.u.u.  c d i )   #.4 K L   u.u.u.u.u.u.u.",
"u.u.u.u.u.u.u.  G 3 x  .  ,.p z &.  u.u.u.u.u.u.u.",
"u.u.u.u.u.u.  e Q   D X.  3.Z 9 w.8   u.u.u.u.u.u.",
"u.u.u.u.u.u.  h W   ~ ..  6.U   y.V   u.u.u.u.u.u.",
"u.u.u.u.u.u.  N J   { |   6.'   r.T   u.u.u.u.u.u.",
"u.u.u.u.u.u.  H A   o.}   5.*.  9.$.  u.u.u.u.u.u.",
"u.u.u.u.u.u.  ! B   +.]   4.>.  <.1.  u.u.u.u.u.u.",
"u.u.u.u.u.  * / M   :.`   3.<.  ;.9.  u.u.u.u.u.u.",
"u.u.u.u.u.  < ( v   :.`   3.2.  *.q.  u.u.u.u.u.u.",
"u.u.u.u.u.  - / m   :._   3.<.  =.0.  u.u.u.u.u.u.",
"u.u.u.u.u.u.  Q B   O._   5.>.  <.1.  u.u.u.u.u.u.",
"u.u.u.u.u.u.  F F   ..`   7.%.  e.@.  u.u.u.u.u.u.",
"u.u.u.u.u.u.  j E   ^ ]   8.T   t.C   u.u.u.u.u.u.",
"u.u.u.u.u.u.  ; G % n [   5.k s -.    u.u.u.u.u.u.",
"u.u.u.u.u.u.u.  q 7 0 S   R , a y   u.u.u.u.u.u.u.",
"u.u.u.u.u.u.u.u.      = : *       u.u.u.u.u.u.u.u.",
"u.u.u.u.u.u.u.u.u.@ X       + & u.u.u.u.u.u.u.u.u.",
"u.u.u.u.u.u.u.u.u.u.u.u.u.u.u.u.u.u.u.u.u.u.u.u.u."
};
