/* XPM */
static char *result[] = {
/* columns rows colors chars-per-pixel */
"25 25 166 2 ",
"   c #000000",
".  c #00000E",
"X  c #340000",
"o  c #3A001B",
"O  c #032908",
"+  c #33291D",
"@  c #3A3923",
"#  c #480000",
"$  c #530000",
"%  c #5A0000",
"&  c #49001B",
"*  c #650000",
"=  c #6E0000",
"-  c #7B0300",
";  c #7A0014",
":  c #632E00",
">  c #673700",
",  c #4E0021",
"<  c #560028",
"1  c #5E0032",
"2  c #62133D",
"3  c #48372A",
"4  c #005A00",
"5  c #1F5207",
"6  c #006700",
"7  c #007A00",
"8  c #2B780E",
"9  c #554000",
"0  c #574E36",
"q  c #5E5D37",
"w  c #755E35",
"e  c #750049",
"r  c #4C3640",
"t  c #79374A",
"y  c #564249",
"u  c #467944",
"i  c #6D6445",
"p  c #746A45",
"a  c #7A6348",
"s  c #746B4B",
"d  c #7B7B46",
"f  c #7C794D",
"g  c #6F7953",
"h  c #7E7551",
"j  c #725360",
"k  c #6E6E6B",
"l  c #7E616D",
"z  c #9F0000",
"x  c #85001D",
"c  c #AA0000",
"v  c #B90000",
"b  c #DC0000",
"n  c #FC0001",
"m  c #F9270E",
"M  c #FA332A",
"N  c #BC7E16",
"B  c #925938",
"V  c #FA4E2C",
"C  c #F45230",
"Z  c #8F0049",
"A  c #930055",
"S  c #88394E",
"D  c #982957",
"F  c #A63A61",
"G  c #904158",
"H  c #8A664C",
"J  c #81764C",
"K  c #82784C",
"L  c #8C6A57",
"P  c #817857",
"I  c #9F4F64",
"U  c #A34461",
"Y  c #826E78",
"T  c #A16A69",
"R  c #A57666",
"E  c #B77271",
"W  c #00A21F",
"Q  c #4B8411",
"!  c #788746",
"~  c #B48F2F",
"^  c #8E8150",
"/  c #958B52",
"(  c #A18F55",
")  c #AE9D52",
"_  c #A99B5A",
"`  c #B3A35B",
"'  c #948563",
"]  c #958B60",
"[  c #958C68",
"{  c #9E9266",
"}  c #A48469",
"|  c #A19669",
" . c #A3996A",
".. c #A99C6B",
"X. c #AFA060",
"o. c #B5A664",
"O. c #B8AA63",
"+. c #B1A574",
"@. c #B5AB76",
"#. c #B5A97A",
"$. c #BCAB7A",
"%. c #BDB27B",
"&. c #C6AA77",
"*. c #C9BA79",
"=. c #D0BF7C",
"-. c #D1C17D",
";. c #8D8D8C",
":. c #9D9780",
">. c #949395",
",. c #959699",
"<. c #989D9F",
"1. c #999EA0",
"2. c #AA9DA3",
"3. c #A9A4A7",
"4. c #A9A8A6",
"5. c #AAADB4",
"6. c #B1B4B4",
"7. c #B2B4BA",
"8. c #BFB6BE",
"9. c #B7BCBB",
"0. c #CCA881",
"q. c #D4AE89",
"w. c #C6B881",
"e. c #CBBE85",
"r. c #CEB889",
"t. c #D9BC8B",
"y. c #CEC087",
"u. c #D8C886",
"i. c #D4C48B",
"p. c #DCC38F",
"a. c #DACB8E",
"s. c #DDCD91",
"d. c #DED292",
"f. c #E2C993",
"g. c #E6D696",
"h. c #E9D497",
"j. c #E9DA97",
"k. c #E7D798",
"l. c #EAD59A",
"z. c #E7D898",
"x. c #EBDB9A",
"c. c #EDE09C",
"v. c #F1E19F",
"b. c #F4E5A2",
"n. c #F7E8A3",
"m. c #F9E9A5",
"M. c #FCECA9",
"N. c #BABCC2",
"B. c #BFC5C6",
"V. c #C6C5C5",
"C. c #C1C1CB",
"Z. c #CACCCD",
"A. c #CACDD1",
"S. c #CFD3D2",
"D. c #CED9D9",
"F. c #D7D8D7",
"G. c #D5D7DA",
"H. c #CCE0DE",
"J. c #DDDFE2",
"K. c #DCE7E7",
"L. c #E4E6E6",
"P. c #EBEBED",
"I. c #ECEEF1",
"U. c #F2F3F4",
"Y. c #F7F7F8",
"T. c None",
/* pixels */
"T.T.T.T.T.T.T.T.T.T.T.T.T.T.T.T.T.T.T.T.T.T.T.T.T.",
"T.T.T.T.T.L.7.B.7.U.T.T.T.T.T.T.T.T.N.N.N.T.T.T.T.",
"T.T.T.T.I.[ ` X.` :.Y.T.T.T.T.T.Z.;.o.` ) 4.T.T.T.",
"T.T.T.U.h j.M.b.b.-.k I.I.I.Y.C.( u.v.m.M.$.4.T.T.",
"T.T.T.I.^ z.@.y.v.+.p K J J f H t.b.k.%.%.M.) N.T.",
"T.T.T.U.q L & 1 *.v.v.v.v.b.v.v.z.k.' , & #.O.N.T.",
"T.T.T.U.  Z U a i.z.g.z.g.g.g.g.l.d.o F D T O.7.T.",
"T.T.T.T.J.t < i.n.z.h.z.z.z.z.h.g.b.t.D A E _ A.T.",
"T.T.T.T.T.6.B I $.h.x.z.z.z.h.x.b.#.L f.S # Z.T.T.",
"T.T.T.T.T.5.*.r.  a k.x.z.z.c.p.} O *.n.d A.T.T.T.",
"T.T.T.T.L.< p.f     i z.l.x.i.3     { b.a I.Y.T.T.",
"T.T.P.L.7._ b.  h     l.z.x.R   @ s 0 M.0.o   4.T.",
"T.P.u 4   s s.$.h    .x.x.h.x.P   ] w.e. .3 q.: F.",
"T.8.7 ! v g l.z.%.r.v.e.@.c.x.g.w.*.v.s.+ $.M./ J.",
"S.8 W 5 X q a.x.v.s.v.g.u.v.p x.x.c.g.c.] s.b./ L.",
";.6 ; Q % ' l.g.x.+. ...| +.| x.g.g.b.} $.v.l.> J.",
"I.* M b m = i.v.g.v.+.w.a.| v.z.z.h.x.p.a.b.&.;.T.",
"K.z n ~ n n w } l.g.v.c.z.b.h.z.z.z.z.x.x.l.* C.T.",
"T.D.c b C V N . 0.x.g.k.z.g.z.z.z.z.z.h.z.a.  # V.",
"T.T.D.2.- 9 v s b.g.k.k.h.z.z.z.z.z.h.z.x.g.2 x >.",
"T.T.T.T.G.G.H.r 0.b.x.v.x.v.v.x.x.x.x.x.x.]   3.T.",
"T.T.T.T.T.T.Y.y e &.-.-.=.=.=.-.-.-.u...G j J.T.T.",
"T.T.T.T.T.T.6.% % Y <.,.,.,.,.,.,.,.1.l $ % V.T.T.",
"T.T.T.T.T.T.T.Z.9.U.T.T.T.T.T.T.T.T.T.P.9.S.T.T.T.",
"T.T.T.T.T.T.T.T.T.T.T.T.T.T.T.T.T.T.T.T.T.T.T.T.T."
};
