/* XPM */
static char *result[] = {
/* columns rows colors chars-per-pixel */
"25 25 172 2 ",
"   c #580000",
".  c #4A0018",
"X  c #450F1B",
"o  c #59001B",
"O  c #5D2A1F",
"+  c #6C2301",
"@  c #642115",
"#  c #6A2913",
"$  c #6C2D14",
"%  c #612B1E",
"&  c #6A2F1A",
"*  c #6A341E",
"=  c #6C3C1F",
"-  c #723917",
";  c #73371A",
":  c #713F1D",
">  c #723E1C",
",  c #4E2C28",
"<  c #522824",
"1  c #512E25",
"2  c #5A2C21",
"3  c #563125",
"4  c #5F3125",
"5  c #5C3625",
"6  c #5F3526",
"7  c #5D3824",
"8  c #5C3825",
"9  c #5E3C27",
"0  c #50322A",
"q  c #533528",
"w  c #663720",
"e  c #603226",
"r  c #643625",
"t  c #663724",
"y  c #603823",
"u  c #613B25",
"i  c #633A24",
"p  c #633B24",
"a  c #633A25",
"s  c #633A27",
"d  c #673D25",
"f  c #673F24",
"g  c #653D26",
"h  c #6D3E20",
"j  c #6C3D25",
"k  c #703D20",
"l  c #1A5709",
"z  c #24550F",
"x  c #2B5A0C",
"c  c #214F13",
"v  c #234E14",
"b  c #4D451E",
"n  c #4E451F",
"m  c #405414",
"M  c #475418",
"N  c #5B591E",
"B  c #6A4F1D",
"V  c #76401B",
"C  c #784218",
"Z  c #78441F",
"A  c #7E4C1D",
"S  c #64541E",
"D  c #6C541D",
"F  c #685A1B",
"G  c #484123",
"H  c #5E4422",
"J  c #5D4D23",
"K  c #59432E",
"L  c #5C452C",
"P  c #5A4B32",
"I  c #5D4930",
"U  c #5A4D32",
"Y  c #5A5333",
"T  c #5D5A38",
"R  c #5F5D39",
"E  c #644025",
"W  c #6C4121",
"Q  c #6C4122",
"!  c #6D4523",
"~  c #6B4324",
"^  c #6C4324",
"/  c #624820",
"(  c #6F4827",
")  c #6F4E24",
"_  c #644229",
"`  c #67402A",
"'  c #66452C",
"]  c #694528",
"[  c #634A2D",
"{  c #6B482B",
"}  c #734520",
"|  c #734723",
" . c #774622",
".. c #704624",
"X. c #734724",
"o. c #784724",
"O. c #724823",
"+. c #774B23",
"@. c #724824",
"#. c #754A24",
"$. c #774A26",
"%. c #774B26",
"&. c #794A22",
"*. c #784C23",
"=. c #784B26",
"-. c #7B4C24",
";. c #7D4F25",
":. c #7E4C26",
">. c #734928",
",. c #774928",
"<. c #7D5122",
"1. c #7C5023",
"2. c #7E5123",
"3. c #7D5222",
"4. c #795623",
"5. c #7F5423",
"6. c #7B5024",
"7. c #7C5024",
"8. c #7D5127",
"9. c #75562C",
"0. c #7F5028",
"q. c #7C5829",
"w. c #645736",
"e. c #6B5D39",
"r. c #69653D",
"t. c #7B673A",
"y. c #7E6A38",
"u. c #6D7445",
"i. c #6F7848",
"p. c #767C4A",
"a. c #787C4A",
"s. c #7C7D4B",
"d. c #804C1E",
"f. c #81511F",
"g. c #805324",
"h. c #825224",
"j. c #835226",
"k. c #825524",
"l. c #845625",
"z. c #845426",
"x. c #845527",
"c. c #83522A",
"v. c #805428",
"b. c #8E5A29",
"n. c #827542",
"m. c #817E45",
"M. c #748750",
"N. c #7C8A52",
"B. c #7E9054",
"V. c #7C9357",
"C. c #839356",
"Z. c #899959",
"A. c #85A05D",
"S. c #8AA25E",
"D. c #8BA762",
"F. c #8FA862",
"G. c #8CAA63",
"H. c #89AC66",
"J. c #8FAE65",
"K. c #95AE66",
"L. c #95B368",
"P. c #92B66B",
"I. c #96B76B",
"U. c #9ABA6C",
"Y. c #9FC170",
"T. c #A2C371",
"R. c #A2C471",
"E. c #A3C573",
"W. c #ABCC77",
"Q. c #ABCE77",
"!. c #B9E181",
"~. c None",
/* pixels */
"~.~.~.~.~.~.~.~.~.>.~.~.~.~.| ~.~.~.~.~.~.~.~.~.~.",
"~.~.~.~.~.~.~.~.2 t ~.~.~.~.+.~.~.~.~.~.~.~.~.~.~.",
"~.~.~.~.~.~.~.~.u.e.~.~.8 ..#.X.1 ~.~.~.~.~.~.~.~.",
"~.~.~.~.~.~.~.~.~.F.% ~.~.~ ,.3 ~.~.~.~.~.~.~.~.~.",
"~.~.~.~.~.~.~.~.~.I.i.a  .6.7 ~.~.~.~.~.~.~.~.~.~.",
"~.~.~.~.~.~.~.~.~.T.J.D.w.> ~.~.~.~.~.~.~.~.~.~.~.",
"~.~.~.~.k.~.~.~.~.~.~.~.~.+ q.~.~.~.: _ Y ~.~.~.~.",
"~.~.T ' k O.~.~.~.~.~.~.~.f.c.~.~.h L M.V.~.~.~.~.",
"~.~.~.~.H.[ o.~.~.~.~.~.d.7.5 ~.~.$ m.~.L.~.~.~.~.",
"~.~.~.~.~.~.< %.*.8.~.~.=.b.i ~.~.<.Q ~.~.~.g.~.~.",
"~.  # 9 @ &.! ^ @.s 0.~.0 $.g.C ; ` X ~.~.E O p.B.",
"~.s.r.~.K u p ~.~.~.6 - & f A t.a.. R { v.y ~.R.G.",
"~.Y.~.~.~.~.~.~.~.~.~.C.n.1.= Z.~.~.U.S.] V ~.~.Q.",
"~.W.~.~.~.~.~.~.~.~.~.~.P.y.w , ~.~.~.~.~.P ~.~.~.",
"~.!.~.~.~.~.~.~.~.~.~.~.~.9.;.d q ~.~.~.~.A.~.~.~.",
"~.~.~.~.~.~.~.~.~.~.~.~.~.~.2.x.~.~.~.~.~.E.~.~.~.",
"~.~.~.~.~.~.~.~.~.~.~.~.~.~.h.* N.~.~.~.~.~.~.~.~.",
"~.~.~.~.~.~.~.~.~.~.~.~.~.l.Z I K.~.~.~.~.~.~.~.~.",
"~.~.~.~.~.~.~.~.~.~.~.~.b :.} U ~.~.~.~.~.~.~.~.~.",
"~.~.~.~.~.~.~.~.~.~.~.F G e 5.W o ~.~.~.~.~.~.~.~.",
"~.~.~.~.~.~.~.~.~.D ) S j ! 3.z.( z ~.~.~.~.~.~.~.",
"~.~.~.~.~.~.~.~.r J c m 4.-.g 4 H M ~.~.~.~.~.~.~.",
"~.~.~.~.~.~.~.~.~.~.~.~.B j.n ~.~.~.~.~.~.~.~.~.~.",
"~.~.~.~.~.~.~.~.~.~.~.~./ N x ~.~.~.~.~.~.~.~.~.~.",
"~.~.~.~.~.~.~.~.~.~.~.~.~.v l ~.~.~.~.~.~.~.~.~.~."
};
